<?xml version="1.0" encoding="UTF-8"?>
<svg width="24px" height="24px" viewBox="0 0 24 24" version="1.1" xmlns="http://www.w3.org/2000/svg">
    <path d="M19,3 C20.1046,3 21,3.89543 21,5 L21,19 C21,20.1046 20.1046,21 19,21 L5,21 C3.89543,21 3,20.1046 3,19 L3,5 C3,3.89543 3.89543,3 5,3 L19,3 Z M18.5,18.5 L18.5,13.2998 C18.5,11.6191 17.1809,10.3 15.5002,10.3 C14.5562,10.3 13.7033,10.7217 13.1283,11.4002 L13,11.4002 L13,10.5 L10.5,10.5 L10.5,18.5 L13,18.5 L13,13.5998 C13,12.8874 13.5876,12.3 14.3,12.3 C15.0124,12.3 15.6,12.8874 15.6,13.5998 L15.6,18.5 L18.5,18.5 Z M6.5,8 C7.32843,8 8,7.32843 8,6.5 C8,5.67157 7.32843,5 6.5,5 C5.67157,5 5,5.67157 5,6.5 C5,7.32843 5.67157,8 6.5,8 Z M5,18.5 L8,18.5 L8,10.5 L5,10.5 L5,18.5 Z" fill="#000000"></path>
</svg> 