<?xml version="1.0" encoding="UTF-8"?>
<svg width="24px" height="24px" viewBox="0 0 24 24" version="1.1" xmlns="http://www.w3.org/2000/svg">
    <path d="M23,5.13 C22.19,5.48 21.32,5.71 20.4,5.82 C21.34,5.24 22.06,4.31 22.4,3.23 C21.53,3.76 20.57,4.14 19.55,4.34 C18.73,3.42 17.55,2.85 16.24,2.85 C13.72,2.85 11.67,4.9 11.67,7.42 C11.67,7.77 11.71,8.11 11.77,8.43 C7.9,8.25 4.45,6.41 2.17,3.6 C1.79,4.25 1.57,5.01 1.57,5.82 C1.57,7.34 2.33,8.7 3.49,9.5 C2.74,9.47 2.04,9.27 1.42,8.94 L1.42,9 C1.42,11.23 2.99,13.13 5.07,13.54 C4.7,13.64 4.31,13.69 3.91,13.69 C3.62,13.69 3.35,13.67 3.08,13.62 C3.63,15.49 5.36,16.86 7.39,16.89 C5.78,18.16 3.76,18.9 1.57,18.9 C1.21,18.9 0.86,18.89 0.51,18.85 C2.56,20.19 4.98,20.97 7.58,20.97 C16.23,20.97 20.94,13.77 20.94,7.47 C20.94,7.28 20.94,7.09 20.93,6.9 C21.82,6.24 22.58,5.42 23.18,4.48 L23,5.13 Z" fill="#000000"></path>
</svg> 